<?xml version="1.0" encoding="UTF-8"?>
<svg id="Layer_2" data-name="Layer 2" xmlns="http://www.w3.org/2000/svg" version="1.1" viewBox="0 0 197.1 196.9">
  <defs>
    <style>
      .cls-1 {
        fill: #70c7ba;
        stroke-width: 0px;
      }
    </style>
  </defs>
  <path class="cls-1" d="M182.4,62h0c-4.6-11.2-11.9-21.5-20.3-29.9-8.4-8.4-19.1-14.7-30.3-19.3-10.7-4.5-22.7-6.7-35.1-6.7s-25.1.4-35.8,4.9c-11.1,4.6-20.5,13.4-28.9,21.8-8.4,8.4-18.2,17.3-22.8,28.5-4.5,10.8-3,23.9-3,36.3s.9,24.5,5.4,35.3c4.6,11.1,14.1,19,22.4,27.4,8.4,8.4,16,18.4,27.2,23.1,10.8,4.5,23.2,7.5,35.5,7.5s24.5-3.7,35.3-8.1c11.1-4.6,21.2-11.8,29.6-20.2,8.4-8.4,15.2-18.7,19.8-29.8,4.5-10.7,9.5-22.7,9.5-35.1s-4.1-24.7-8.6-35.5ZM122.7,150.2h0s-19.6-2.9-19.6-2.9l5.6-37.9-41,31.6-12.1-15.8,36-27.7-36-27.7,12.1-15.8,41,31.6-5.6-37.9,19.6-2.9,7.8,52.7-7.8,52.7Z"/>
</svg>