<?xml version="1.0" encoding="UTF-8"?>
<svg version="1.1" xmlns="http://www.w3.org/2000/svg" width="180" height="180">
<path d="M0 0 C0.94601074 0.29003906 0.94601074 0.29003906 1.91113281 0.5859375 C21.70523618 6.83975465 37.94536136 19.07452543 50 36 C50.51949219 36.71929687 51.03898438 37.43859375 51.57421875 38.1796875 C64.3338227 57.53677696 68.25451181 82.8036699 63.875 105.375 C63.30215334 107.59743286 62.67494856 109.80641719 62 112 C61.70996094 112.94601074 61.70996094 112.94601074 61.4140625 113.91113281 C55.16024535 133.70523618 42.92547457 149.94536136 26 162 C25.28070313 162.51949219 24.56140625 163.03898438 23.8203125 163.57421875 C4.46322304 176.3338227 -20.8036699 180.25451181 -43.375 175.875 C-45.59743286 175.30215334 -47.80641719 174.67494856 -50 174 C-50.63067383 173.80664062 -51.26134766 173.61328125 -51.91113281 173.4140625 C-76.34401529 165.69465351 -94.36088235 149.22173344 -106.26928711 126.69702148 C-109.31257422 120.67994265 -111.39012017 114.549669 -113 108 C-113.22429687 107.15824219 -113.44859375 106.31648438 -113.6796875 105.44921875 C-118.97340044 82.13512683 -113.09279922 58.04891297 -100.94140625 37.9453125 C-86.89138214 16.62998417 -66.37160166 3.27714733 -41.6875 -2.4375 C-28.0319617 -4.35781007 -13.18881346 -4.05809645 0 0 Z " fill="#FDFDF9" transform="translate(115,3)"/>
<path d="M0 0 C8.70118847 7.10761587 14.70676633 16.39567349 16.765625 27.5546875 C17.25821192 32.69401104 17.14341793 37.84492221 17 43 C20.63 42.01 24.26 41.02 28 40 C30 42 30 42 30.375 45.6875 C30.19728782 51.14721304 28.14778288 54.97576216 24.234375 58.6640625 C20.80008116 61.4087934 18.11935176 63.05007686 13.8125 63.9375 C11.72098387 64.50049154 11.72098387 64.50049154 10 66 C8.69556417 68.9182093 7.73943267 71.82609451 6.85595703 74.89526367 C2.33056942 90.61059857 -8.99003265 107.66897421 -22.125 117.625 C-25.6918961 119.33090683 -28.08842103 119.43461989 -32 119 C-34.76142665 117.98263229 -35.68085371 117.63829259 -37 115 C-39.29113773 116.13732736 -41.56900953 117.29507097 -43.83984375 118.47265625 C-45.37318359 119.25962891 -45.37318359 119.25962891 -46.9375 120.0625 C-48.46697266 120.85333984 -48.46697266 120.85333984 -50.02734375 121.66015625 C-55.73608531 124.23321585 -61.80739743 125.13514758 -67.8125 123 C-71.0510186 120.03906871 -71.22935795 117.27356047 -72 113 C-73.051875 113.474375 -74.10375 113.94875 -75.1875 114.4375 C-81.76810596 117.22767693 -88.51043913 118.31681542 -95.3125 115.75 C-98.50989872 113.66797293 -100.48251874 111.72727716 -101.59399414 108.01733398 C-102.09586584 99.40171117 -97.72614777 92.67842228 -93.70672607 85.37524414 C-91.56707331 81.47643565 -89.50510319 77.53705384 -87.44140625 73.59765625 C-87.0405481 72.83466217 -86.63968994 72.07166809 -86.22668457 71.28555298 C-79.12180374 57.66811316 -75.01521522 43.2713359 -70.92529297 28.50976562 C-66.94478348 14.45404715 -61.05997251 3.51422715 -48.0390625 -4.0078125 C-32.1298972 -11.74905386 -14.28740379 -10.69795752 0 0 Z " fill="#000000" transform="translate(129,29)"/>
<path d="M0 0 C0.94601074 0.29003906 0.94601074 0.29003906 1.91113281 0.5859375 C21.70523618 6.83975465 37.94536136 19.07452543 50 36 C50.51949219 36.71929687 51.03898438 37.43859375 51.57421875 38.1796875 C64.3338227 57.53677696 68.25451181 82.8036699 63.875 105.375 C63.30215334 107.59743286 62.67494856 109.80641719 62 112 C61.70996094 112.94601074 61.70996094 112.94601074 61.4140625 113.91113281 C55.16024535 133.70523618 42.92547457 149.94536136 26 162 C25.28070313 162.51949219 24.56140625 163.03898438 23.8203125 163.57421875 C4.46322304 176.3338227 -20.8036699 180.25451181 -43.375 175.875 C-45.59743286 175.30215334 -47.80641719 174.67494856 -50 174 C-50.63067383 173.80664062 -51.26134766 173.61328125 -51.91113281 173.4140625 C-76.34401529 165.69465351 -94.36088235 149.22173344 -106.26928711 126.69702148 C-109.31257422 120.67994265 -111.39012017 114.549669 -113 108 C-113.22429687 107.15824219 -113.44859375 106.31648438 -113.6796875 105.44921875 C-118.97340044 82.13512683 -113.09279922 58.04891297 -100.94140625 37.9453125 C-86.89138214 16.62998417 -66.37160166 3.27714733 -41.6875 -2.4375 C-28.0319617 -4.35781007 -13.18881346 -4.05809645 0 0 Z M-83 25 C-83.65742187 25.58652344 -84.31484375 26.17304688 -84.9921875 26.77734375 C-99.39020117 40.37546777 -108.42952811 60.59029319 -109.375 80.2265625 C-110.10839654 106.45312821 -103.04830953 128.29104866 -84.8125 147.625 C-67.39083327 164.32947977 -44.95736234 172.43137272 -21 172 C-1.10112883 170.89778755 17.15360885 163.2299499 32 150 C32.75925781 149.33484375 33.51851562 148.6696875 34.30078125 147.984375 C49.3551812 133.94400199 59.11514714 112.54397515 60 92 C60.03996094 91.24976562 60.07992187 90.49953125 60.12109375 89.7265625 C60.72994437 67.59305158 52.66616629 46.4580851 38 30 C37.00226563 28.86111328 37.00226563 28.86111328 35.984375 27.69921875 C21.59347258 12.26897337 -0.00723007 2.84117371 -21 2 C-21.69867188 1.96003906 -22.39734375 1.92007812 -23.1171875 1.87890625 C-45.61138329 1.17853752 -66.4822781 10.15529494 -83 25 Z " fill="#000000" transform="translate(115,3)"/>
<path d="M0 0 C4.52905982 1.94102564 7.16894648 5.02122208 10 9 C12.96725728 16.48879218 12.99012079 24.30866793 10.16796875 31.84765625 C7.96666536 35.90423876 4.98391992 38.7051481 1 41 C-3.12692845 42.1262272 -6.27250139 41.31382293 -10.1875 39.625 C-15.93458938 34.26104992 -18.29231733 28.32728382 -18.625 20.5 C-18.35420084 14.12869755 -16.76546856 9.16265558 -13 4 C-8.77055856 0.13833607 -5.67311987 -0.72203344 0 0 Z " fill="#FCFCF8" transform="translate(122,38)"/>
<path d="M0 0 C2 2 2 2 2.375 5.625 C2.2029218 11.21248025 0.20941508 15.57244014 -3.54296875 19.6953125 C-10.62873037 26.14870638 -17.48680158 28.61011482 -27 29 C-24.76624052 27.85913 -22.52467426 26.78948902 -20.23046875 25.7734375 C-13.44990622 22.65733816 -7.85560762 19.58419147 -4 13 C-2.97547326 10.01913715 -2.3548938 7.12885959 -2 4 C-3.03640625 4.22816406 -4.0728125 4.45632812 -5.140625 4.69140625 C-6.5103189 4.98223167 -7.88011612 5.27257079 -9.25 5.5625 C-9.93191406 5.71396484 -10.61382812 5.86542969 -11.31640625 6.02148438 C-14.92220803 6.77415174 -17.48600441 7.06166083 -21 6 C-18.44114774 4.98968935 -15.87859624 3.99159855 -13.3125 3 C-12.59126953 2.71382813 -11.87003906 2.42765625 -11.12695312 2.1328125 C-4.01338635 -0.59567886 -4.01338635 -0.59567886 0 0 Z " fill="#F7F7F3" transform="translate(91,70)"/>
<path d="M0 0 C1.15392455 2.3078491 1.53437166 4.47230331 2 7 C3.32 6.67 4.64 6.34 6 6 C5.25 13.75 5.25 13.75 3 16 C0.5625 16.375 0.5625 16.375 -2 16 C-4.69642883 13.67549239 -4.98583627 12.09737567 -5.5 8.5625 C-4.88016043 4.14614309 -3.37648267 2.7855982 0 0 Z " fill="#060606" transform="translate(121,47)"/>
</svg>
