<?xml version="1.0" encoding="UTF-8"?>
<svg version="1.1" xmlns="http://www.w3.org/2000/svg" width="250" height="250">
<path d="M0 0 C82.5 0 165 0 250 0 C250 82.5 250 165 250 250 C167.5 250 85 250 0 250 C0 167.5 0 85 0 0 Z " fill="#FEFEFF" transform="translate(0,0)"/>
<path d="M0 0 C0.78801498 -0.00137466 1.57602997 -0.00274933 2.38792419 -0.00416565 C3.24316177 -0.00057037 4.09839935 0.0030249 4.97955322 0.00672913 C5.88721939 0.0065831 6.79488556 0.00643707 7.73005676 0.00628662 C10.72763465 0.00698281 13.72515026 0.0147615 16.72271729 0.02259827 C18.80208299 0.02446349 20.88144913 0.0258869 22.96081543 0.02688599 C28.4319785 0.03070295 33.903115 0.04052626 39.37426758 0.05158997 C44.95786174 0.06182171 50.5414602 0.06638739 56.12506104 0.07142639 C67.07949979 0.08214924 78.03391883 0.09921584 88.98834229 0.12025452 C83.52367714 5.63684825 83.52367714 5.63684825 80.70318604 7.52259827 C80.10062988 7.93050598 79.49807373 8.3384137 78.8772583 8.75868225 C78.23329102 9.1873761 77.58932373 9.61606995 76.92584229 10.05775452 C75.49554245 11.02560021 74.06588522 11.99439606 72.63677979 12.96400452 C71.50514404 13.72970764 71.50514404 13.72970764 70.35064697 14.51087952 C66.2243234 17.3220334 62.13831645 20.19053363 58.05084229 23.05775452 C56.78361328 23.9458783 56.78361328 23.9458783 55.49078369 24.85194397 C45.91533213 31.56723144 36.35843047 38.30898958 26.82037354 45.07728577 C19.38134096 50.35009697 11.90412688 55.556324 4.36334229 60.68275452 C-2.77417588 65.53803638 -9.78538074 70.53539956 -16.71478271 75.68275452 C-20.11934219 78.19986958 -23.56629699 80.65928257 -27.01165771 83.12025452 C-8.20165771 83.12025452 10.60834229 83.12025452 29.98834229 83.12025452 C31.9176388 74.83249375 31.9176388 74.83249375 29.17584229 71.55775452 C28.13485587 70.71786775 27.06725169 69.91083468 25.98834229 69.12025452 C24.21682513 67.68359731 22.44603854 66.24603897 20.67584229 64.80775452 C19.11570628 63.57558871 17.55398875 62.34541087 15.98834229 61.12025452 C17.44689876 57.4337931 19.29063273 55.95881481 22.61334229 53.87025452 C23.43060791 53.34947327 24.24787354 52.82869202 25.08990479 52.29212952 C25.71638916 51.90541077 26.34287354 51.51869202 26.98834229 51.12025452 C29.67824154 53.09051839 32.34051148 55.09380607 34.98834229 57.12025452 C35.63158447 57.61138733 36.27482666 58.10252014 36.93756104 58.60853577 C41.91675507 62.61565288 45.55009146 66.46484425 46.33209229 72.98744202 C46.5617398 80.66149646 45.75244511 85.81868726 40.73834229 91.80775452 C33.9551373 97.51181326 29.33901246 98.70631264 20.64678955 98.57435608 C19.63139603 98.57494019 18.6160025 98.57552429 17.56983948 98.5761261 C14.23112174 98.57335103 10.89330931 98.54228534 7.55474854 98.51087952 C5.23305245 98.5034151 2.91135004 98.49772312 0.58964539 98.49372864 C-5.50800098 98.47848828 -11.60526358 98.43921967 -17.70275879 98.39491272 C-23.93002125 98.35392587 -30.15734599 98.3357103 -36.38470459 98.31556702 C-48.59385717 98.27272433 -60.80272547 98.20449192 -73.01165771 98.12025452 C-69.85173876 94.91298973 -66.80695447 92.09902018 -63.08978271 89.55384827 C-61.68816895 88.58753479 -61.68816895 88.58753479 -60.25823975 87.60169983 C-59.26936768 86.92719788 -58.28049561 86.25269592 -57.26165771 85.55775452 C-55.18059988 84.12463791 -53.09987307 82.69104052 -51.01947021 81.25697327 C-49.99627686 80.55362854 -48.9730835 79.85028381 -47.91888428 79.12562561 C-43.97104876 76.40245455 -40.050212 73.64237486 -36.13665771 70.87025452 C-35.45740234 70.38983704 -34.77814697 69.90941956 -34.07830811 69.41444397 C-32.72759162 68.45893293 -31.37708421 67.50312627 -30.02679443 66.54701233 C-15.31918949 56.13372868 -0.56219059 45.79179103 14.21099854 35.47181702 C15.07426758 34.86837463 15.93753662 34.26493225 16.82696533 33.64320374 C18.43867328 32.51660607 20.05077062 31.39056511 21.66339111 30.26527405 C28.80919324 25.26939444 35.89888645 20.1955882 42.98834229 15.12025452 C36.61630636 15.06965822 30.24432198 15.03456495 23.87213135 15.01039124 C21.70316634 15.00031663 19.53421497 14.98665654 17.36529541 14.96937561 C14.25263103 14.94519129 11.14014577 14.93378619 8.02740479 14.92494202 C7.05340729 14.91461945 6.07940979 14.90429688 5.07589722 14.8936615 C4.17511444 14.89351044 3.27433167 14.89335938 2.34625244 14.89320374 C1.5512735 14.88876251 0.75629456 14.88432129 -0.06277466 14.87974548 C-2.24809263 14.94657149 -2.24809263 14.94657149 -4.01165771 17.12025452 C-4.96937329 21.2226766 -4.96937329 21.2226766 -4.01165771 25.12025452 C-1.32197159 27.80994064 1.5036127 30.00632171 4.58209229 32.23744202 C5.37615479 32.85877014 6.17021729 33.48009827 6.98834229 34.12025452 C6.98834229 34.78025452 6.98834229 35.44025452 6.98834229 36.12025452 C4.94146729 37.88197327 4.94146729 37.88197327 2.23834229 39.80775452 C1.35662354 40.4509967 0.47490479 41.09423889 -0.43353271 41.75697327 C-3.01165771 43.12025452 -3.01165771 43.12025452 -5.05853271 43.04603577 C-11.68266619 39.9061965 -16.87694252 34.23473259 -19.42181396 27.40931702 C-21.04564793 21.10755075 -20.62101649 15.75443319 -17.41790771 10.04603577 C-12.82002301 3.7494881 -7.86885731 -0.01063359 0 0 Z " fill="#6243FF" transform="translate(117.01165771484375,75.87974548339844)"/>
</svg>
