<?xml version="1.0" encoding="UTF-8"?>
<svg version="1.1" xmlns="http://www.w3.org/2000/svg" width="360" height="360">
<path d="M0 0 C3.83625 0.0309375 3.83625 0.0309375 7.75 0.0625 C7.75 7.6525 7.75 15.2425 7.75 23.0625 C3.80218782 24.04945305 0.73396431 24.13057932 -3.3125 24.0625 C-8.37401248 23.94702369 -8.37401248 23.94702369 -13.25 25.0625 C-13.12158618 27.47262923 -13.12158618 27.47262923 -12.25 30.0625 C-10.10241604 31.74842041 -10.10241604 31.74842041 -7.4375 33 C-1.83658811 36.13203632 0.52839667 39.13065202 3 45.0625 C4.86249971 52.62995376 4.71980223 61.0918476 2 68.375 C0.61954914 72.26071354 0.77221947 74.12324798 2.5 77.875 C3.244661 79.27368892 3.99395492 80.66993168 4.75 82.0625 C6.9176425 89.64924873 5.76772864 96.89827399 2.75 104.0625 C-0.61100995 110.07573549 -5.06879604 112.22101018 -11.46875 114.3359375 C-18.08608641 116.0646237 -24.32617045 116.18488129 -31.125 116.125 C-32.09953125 116.12048828 -33.0740625 116.11597656 -34.078125 116.11132812 C-36.46881434 116.09960906 -38.8593744 116.08320219 -41.25 116.0625 C-39.18867359 116.6292856 -37.12581437 117.1904946 -35.0625 117.75 C-34.40556152 117.92861572 -33.74862305 118.10723145 -33.07177734 118.29125977 C-29.02997405 119.37307208 -24.98008196 120.36211083 -20.89453125 121.265625 C-19.98018311 121.47098877 -19.06583496 121.67635254 -18.1237793 121.88793945 C-16.33485704 122.28627217 -14.54339856 122.67343394 -12.74926758 123.04760742 C-3.44892678 125.13598335 4.36211589 128.94218895 9.75 137.0625 C11.71211791 142.94885373 11.766986 149.66485577 9.1875 155.375 C4.92448979 162.58819029 -0.84883669 165.89272011 -8.765625 168.24609375 C-23.39052965 171.67278105 -43.28049997 173.94767109 -57.25 167.0625 C-60.87383812 164.19362815 -63.21776992 161.60431234 -64.25 157.0625 C-64.62296749 151.51061256 -63.57936541 147.93113287 -59.9375 143.6875 C-57.55702932 141.17793655 -55.05626122 139.08201691 -52.25 137.0625 C-52.79269531 136.78277344 -53.33539063 136.50304687 -53.89453125 136.21484375 C-57.69036355 134.0878098 -59.95581855 132.51242457 -62.375 128.8125 C-63.48591469 124.05143705 -63.27992406 120.53167436 -61.25 116.0625 C-59.38444219 113.94098175 -57.62126465 112.66052618 -55.25 111.0625 C-55.67152344 110.44761719 -56.09304687 109.83273438 -56.52734375 109.19921875 C-57.07519531 108.39097656 -57.62304688 107.58273438 -58.1875 106.75 C-58.73277344 105.94949219 -59.27804688 105.14898437 -59.83984375 104.32421875 C-63.72451786 98.09367496 -62.96749857 89.2051045 -62.25 82.0625 C-61.26255937 78.61723772 -60.06318257 76.17890754 -58.25 73.0625 C-58.86875 72.4025 -59.4875 71.7425 -60.125 71.0625 C-64.32246598 65.13666568 -64.98919581 58.14939313 -64.25 51.0625 C-62.98367125 44.1242954 -60.68988358 38.68825135 -55.25 34.0625 C-46.27976455 27.90872557 -35.75759674 27.73752278 -25.25 28.0625 C-25.48589844 27.25232422 -25.48589844 27.25232422 -25.7265625 26.42578125 C-27.04468493 20.47455686 -27.6775535 13.39339231 -24.3125 8.0625 C-18.26778711 0.98155062 -8.70316978 -0.09917892 0 0 Z M-41.25 52.0625 C-41.0810727 56.91281402 -41.0810727 56.91281402 -38.625 60.9375 C-34.88976507 62.70682181 -31.40682379 63.62779656 -27.3125 62.5546875 C-23.85426867 61.18580427 -22.34029902 60.19794853 -20.25 57.0625 C-20.08974601 53.51671315 -20.08974601 53.51671315 -21.25 50.0625 C-28.25161589 44.89464065 -35.33887702 46.15137702 -41.25 52.0625 Z M-36.375 84.6875 C-38.4722805 86.9660965 -38.4722805 86.9660965 -38.8125 90.0625 C-38.13701736 93.6650741 -37.08326787 94.81255199 -34.25 97.0625 C-30.78154217 98.79672892 -27.04228327 98.52752956 -23.25 98.0625 C-19.63811677 96.10606325 -18.55622148 94.92712534 -17.1875 91.0625 C-16.95169199 87.96652545 -16.95169199 87.96652545 -19.0625 85.75 C-24.18942594 81.79494285 -30.68686664 81.72967065 -36.375 84.6875 Z M-41.25 139.0625 C-40.96269945 141.40194736 -40.63063221 143.7364143 -40.25 146.0625 C-36.1574419 148.01207399 -32.82601527 148.33210267 -28.3125 148.3125 C-27.12785156 148.31765625 -25.94320312 148.3228125 -24.72265625 148.328125 C-21.24917717 148.06243706 -18.48914532 147.30870553 -15.25 146.0625 C-15.25 145.0725 -15.25 144.0825 -15.25 143.0625 C-28.52026565 137.53248674 -28.52026565 137.53248674 -41.25 139.0625 Z " fill="#DBB96C" transform="translate(178.25,94.9375)"/>
<path d="M0 0 C5.13651528 4.33630026 7.60576978 9.500503 9 16 C9.34229118 20.69638983 9.28506246 25.35698772 9.1875 30.0625 C9.16719727 31.93325195 9.16719727 31.93325195 9.14648438 33.84179688 C9.1113902 36.89498967 9.06222267 39.9472599 9 43 C12.3 42.34 15.6 41.68 19 41 C19.10787818 43.77186988 19.18723327 46.53955537 19.25 49.3125 C19.28351563 50.09818359 19.31703125 50.88386719 19.3515625 51.69335938 C19.45034138 57.49661842 19.45034138 57.49661842 17.2421875 59.96484375 C10.45805976 63.09688879 3.27263428 63.86632171 -4 62 C-8.81789893 59.61863393 -11.73422022 56.21299729 -15 52 C-15.99580078 52.83144531 -15.99580078 52.83144531 -17.01171875 53.6796875 C-17.89472656 54.40414062 -18.77773438 55.12859375 -19.6875 55.875 C-20.99267578 56.95394531 -20.99267578 56.95394531 -22.32421875 58.0546875 C-27.71419027 61.97323613 -33.72022358 63.45012674 -40.33984375 62.75390625 C-45.13808301 61.85174146 -48.60794789 60.69135083 -52 57 C-55.32482048 50.92360395 -55.96759114 45.69791947 -54.0625 39.0625 C-49.99134721 29.61178186 -40.00234223 25.07553081 -31.125 21.125 C-29.08517082 20.19177815 -27.04607344 19.2569546 -25.0078125 18.3203125 C-23.67194092 17.72114014 -23.67194092 17.72114014 -22.30908203 17.10986328 C-19.81367015 15.97652793 -19.81367015 15.97652793 -17 14 C-24.93945934 10.53550865 -31.03790522 9.8316553 -39.375 12.5 C-45.70911496 15.0389539 -50.82684926 18.58760672 -56 23 C-57.31484375 23.99773437 -57.31484375 23.99773437 -58.65625 25.015625 C-64.96993159 30.88974648 -65.53784224 36.01899765 -65.96630859 44.4128418 C-66.1073846 49.94882185 -66.0979679 55.46285443 -66 61 C-73.59 61 -81.18 61 -89 61 C-89 39.22 -89 17.44 -89 -5 C-81.41 -5 -73.82 -5 -66 -5 C-65.67 -1.04 -65.34 2.92 -65 7 C-63.824375 5.9275 -62.64875 4.855 -61.4375 3.75 C-45.39097532 -10.06784069 -17.89808061 -11.65384523 0 0 Z M-13 27 C-15.2577526 28.21640949 -17.50542161 29.4471923 -19.75 30.6875 C-20.38421875 31.02716797 -21.0184375 31.36683594 -21.671875 31.71679688 C-25.69359261 33.95806658 -28.32359322 36.1408377 -31 40 C-30.34 41.65 -29.68 43.3 -29 45 C-25.82327386 45.55592707 -23.71771983 45.42982092 -20.92578125 43.7578125 C-15.86634759 39.69904317 -12.94151578 35.51104575 -12 29 C-12.33 28.34 -12.66 27.68 -13 27 Z " fill="#E4C77B" transform="translate(280,159)"/>
<path d="M0 0 C3.89699187 -0.13499972 7.78930653 -0.2341331 11.6875 -0.3125 C13.34168945 -0.3753418 13.34168945 -0.3753418 15.02929688 -0.43945312 C23.15916909 -0.56226086 23.15916909 -0.56226086 27.20703125 2.14453125 C30.43605282 7.28704709 30.14187894 12.88523283 30.09765625 18.8046875 C30.0962413 19.5286673 30.09482635 20.25264709 30.09336853 20.99856567 C30.08781075 23.29075407 30.07526633 25.58284157 30.0625 27.875 C30.05747953 29.43749858 30.05291759 30.99999871 30.04882812 32.5625 C30.03785519 36.37503835 30.0206201 40.18750212 30 44 C32.64 44 35.28 44 38 44 C38 51.59 38 59.18 38 67 C25.13 67 12.26 67 -1 67 C-1 59.41 -1 51.82 -1 44 C1.64 44 4.28 44 7 44 C7 36.74 7 29.48 7 22 C4.69 22 2.38 22 0 22 C0 14.74 0 7.48 0 0 Z " fill="#E2C377" transform="translate(69,152)"/>
<path d="M0 0 C3.83625 0.0309375 3.83625 0.0309375 7.75 0.0625 C7.75 7.6525 7.75 15.2425 7.75 23.0625 C3.80218782 24.04945305 0.73396431 24.13057932 -3.3125 24.0625 C-8.37401248 23.94702369 -8.37401248 23.94702369 -13.25 25.0625 C-13.12158618 27.47262923 -13.12158618 27.47262923 -12.25 30.0625 C-10.10241604 31.74842041 -10.10241604 31.74842041 -7.4375 33 C-1.83658811 36.13203632 0.52839667 39.13065202 3 45.0625 C5.12352318 53.6522469 4.7740421 63.16918665 0.75 71.0625 C-0.24 71.5575 -0.24 71.5575 -1.25 72.0625 C-1.25 67.7725 -1.25 63.4825 -1.25 59.0625 C-0.26 59.0625 0.73 59.0625 1.75 59.0625 C1.75 56.0925 1.75 53.1225 1.75 50.0625 C1.09 50.0625 0.43 50.0625 -0.25 50.0625 C-0.4046875 48.4228125 -0.4046875 48.4228125 -0.5625 46.75 C-1.22307727 43.20690371 -1.4527092 42.13006277 -4.25 40.0625 C-5.24 40.3925 -6.23 40.7225 -7.25 41.0625 C-7.25 39.4125 -7.25 37.7625 -7.25 36.0625 C-8.24 36.5575 -8.24 36.5575 -9.25 37.0625 C-9.5903125 36.1034375 -9.5903125 36.1034375 -9.9375 35.125 C-11.08490817 32.8529165 -11.08490817 32.8529165 -13.5625 32.25 C-16.34165387 32.05610554 -18.54593065 32.4615957 -21.25 33.0625 C-21.58 32.7325 -21.91 32.4025 -22.25 32.0625 C-23.4875 32.3409375 -23.4875 32.3409375 -24.75 32.625 C-28.06010702 33.03876338 -29.41483198 32.86428466 -32.5 32 C-37.69103849 30.68904282 -42.19696573 31.42071991 -47.25 33.0625 C-48.24 33.7225 -49.23 34.3825 -50.25 35.0625 C-50.37375 35.866875 -50.4975 36.67125 -50.625 37.5 C-51.25 40.0625 -51.25 40.0625 -53.625 41.625 C-54.49125 42.099375 -55.3575 42.57375 -56.25 43.0625 C-58.63246609 45.6914281 -59.25 46.45084178 -59.25 50.0625 C-59.82668317 52.75540446 -60.55097568 55.3974698 -61.25 58.0625 C-60.59 57.4025 -59.93 56.7425 -59.25 56.0625 C-58.70970405 59.76738652 -58.19525607 63.46996518 -57.75 67.1875 C-57.3620609 70.83883824 -57.3620609 70.83883824 -56.62890625 73.44140625 C-56.16577801 76.64510781 -56.75775104 78.78823345 -57.6875 81.875 C-57.97496094 82.85082031 -58.26242188 83.82664062 -58.55859375 84.83203125 C-58.90083984 85.93611328 -58.90083984 85.93611328 -59.25 87.0625 C-59.91 87.0625 -60.57 87.0625 -61.25 87.0625 C-61.25 89.0425 -61.25 91.0225 -61.25 93.0625 C-61.58 93.0625 -61.91 93.0625 -62.25 93.0625 C-62.76778074 85.36770289 -62.0005733 79.84367047 -58.25 73.0625 C-58.86875 72.4025 -59.4875 71.7425 -60.125 71.0625 C-64.32246598 65.13666568 -64.98919581 58.14939313 -64.25 51.0625 C-62.98367125 44.1242954 -60.68988358 38.68825135 -55.25 34.0625 C-46.27976455 27.90872557 -35.75759674 27.73752278 -25.25 28.0625 C-25.48589844 27.25232422 -25.48589844 27.25232422 -25.7265625 26.42578125 C-27.04468493 20.47455686 -27.6775535 13.39339231 -24.3125 8.0625 C-18.26778711 0.98155062 -8.70316978 -0.09917892 0 0 Z " fill="#F9E8A8" transform="translate(178.25,94.9375)"/>
<path d="M0 0 C0.495 0.99 0.495 0.99 1 2 C1.66 2 2.32 2 3 2 C3.495 3.485 3.495 3.485 4 5 C2.35 5.33 0.7 5.66 -1 6 C-1.0928125 7.1446875 -1.0928125 7.1446875 -1.1875 8.3125 C-2 11 -2 11 -4.4375 12.8125 C-7 14 -7 14 -9 14 C-8.34 16.97 -7.68 19.94 -7 23 C-4.01950007 23.43617072 -1.82871499 23.45631775 0.8515625 21.98046875 C5.8285763 18.13651979 7.59208776 14.03390958 9 8 C9.33 8 9.66 8 10 8 C10 9.65 10 11.3 10 13 C11.32 13.66 12.64 14.32 14 15 C9.375 20.875 9.375 20.875 6 22 C6 22.99 6 23.98 6 25 C6 25.66 6 26.32 6 27 C6.56589844 27.12117188 7.13179688 27.24234375 7.71484375 27.3671875 C8.44832031 27.53476563 9.18179688 27.70234375 9.9375 27.875 C10.66839844 28.03742188 11.39929688 28.19984375 12.15234375 28.3671875 C14 29 14 29 15 31 C15.0396713 32.66619446 15.04384447 34.33391013 15 36 C16.258125 36 17.51625 36 18.8125 36 C26.375 36 26.375 36 30 38 C31.32 37.01 32.64 36.02 34 35 C34 35.66 34 36.32 34 37 C35.65 36.67 37.3 36.34 39 36 C39 36.99 39 37.98 39 39 C32.55317752 41.83939474 26.05752964 42.54246494 19.125 41.3125 C13.63327685 39.00597628 10.61811829 35.60834014 7 31 C6.33613281 31.55429688 5.67226563 32.10859375 4.98828125 32.6796875 C4.10527344 33.40414062 3.22226562 34.12859375 2.3125 34.875 C1.44238281 35.59429687 0.57226562 36.31359375 -0.32421875 37.0546875 C-5.71419027 40.97323613 -11.72022358 42.45012674 -18.33984375 41.75390625 C-23.13808301 40.85174146 -26.60794789 39.69135083 -30 36 C-32.97873054 30.55611316 -34.05055741 25.93065696 -32.42578125 19.8515625 C-30.55592874 14.37061916 -30.55592874 14.37061916 -27 12 C-20.8606357 9.72616137 -20.8606357 9.72616137 -17.25 10.875 C-16.5075 11.24625 -15.765 11.6175 -15 12 C-14.01 12 -13.02 12 -12 12 C-12.020625 11.05125 -12.04125 10.1025 -12.0625 9.125 C-12 6 -12 6 -11 4 C-8.43365606 3.35841401 -5.86176794 2.97800854 -3.25 2.5625 C-2.13625 2.2840625 -2.13625 2.2840625 -1 2 C-0.67 1.34 -0.34 0.68 0 0 Z " fill="#DAB86A" transform="translate(258,180)"/>
<path d="M0 0 C2.5 2.3125 2.5 2.3125 4 5 C4.08868542 9.25690031 3.28786573 10.67702869 0.4375 13.875 C-0.366875 14.57625 -1.17125 15.2775 -2 16 C-1.195625 16.53625 -0.39125 17.0725 0.4375 17.625 C3 20 3 20 4.125 22.875 C3.98159531 26.46011717 2.98247514 28.15032919 0.51953125 30.7421875 C-3.73315075 34.26240242 -8.70155817 34.4647756 -14 34 C-19.05418019 32.37238265 -22.36629687 30.71871811 -25 26 C-25.08868542 21.74309969 -24.28786573 20.32297131 -21.4375 17.125 C-20.633125 16.42375 -19.82875 15.7225 -19 15 C-19.804375 14.46375 -20.60875 13.9275 -21.4375 13.375 C-24 11 -24 11 -25.125 8.125 C-24.98159531 4.53988283 -23.98247514 2.84967081 -21.51953125 0.2578125 C-15.11384725 -5.04457888 -6.78083547 -3.71026847 0 0 Z " fill="#F8E6A4" transform="translate(95,111)"/>
<path d="M0 0 C0.99 0.33 1.98 0.66 3 1 C2.67 2.32 2.34 3.64 2 5 C2.99 4.67 3.98 4.34 5 4 C4.67 5.65 4.34 7.3 4 9 C5.65 9 7.3 9 9 9 C9.33 9.99 9.66 10.98 10 12 C10.66 12.33 11.32 12.66 12 13 C11.88637738 14.4800841 11.75877092 15.95910074 11.625 17.4375 C11.55539063 18.26121094 11.48578125 19.08492187 11.4140625 19.93359375 C11.27742187 20.61550781 11.14078125 21.29742187 11 22 C10.34 22.33 9.68 22.66 9 23 C8.01 22.67 7.02 22.34 6 22 C5.01 22.33 4.02 22.66 3 23 C1.76057623 28.57740697 2.13489646 33.376827 3 39 C5.49064888 39.68707555 7.37886292 40 10 40 C11 43 11 43 11 45 C13.66512684 45.35876707 16.32927276 45.6872492 19 46 C19.92941406 46.11859375 20.85882813 46.2371875 21.81640625 46.359375 C30.38461711 47.2977449 37.71397103 46.10986849 46 44 C45.67 43.34 45.34 42.68 45 42 C45.495 41.01 45.495 41.01 46 40 C47.9490625 40.0309375 47.9490625 40.0309375 49.9375 40.0625 C51.29165633 40.08399454 52.64756083 40.07148199 54 40 C54.33 39.67 54.66 39.34 55 39 C56.99958364 38.95919217 59.00045254 38.95745644 61 39 C61.77242269 37.16299211 61.77242269 37.16299211 62 35 C60.64555699 33.22809091 60.64555699 33.22809091 59 32 C59.66 31.67 60.32 31.34 61 31 C60.89171875 29.89591797 60.89171875 29.89591797 60.78125 28.76953125 C61.05675161 25.28148408 62.12103376 24.19391086 64.5 21.6875 C65.47453125 20.64142578 65.47453125 20.64142578 66.46875 19.57421875 C67.22671875 18.79498047 67.22671875 18.79498047 68 18 C67.01 16.02 67.01 16.02 66 14 C65.38125 14.20625 64.7625 14.4125 64.125 14.625 C63.42375 14.74875 62.7225 14.8725 62 15 C61.34 14.34 60.68 13.68 60 13 C60.66 11.68 61.32 10.36 62 9 C67.50143266 10.46704871 67.50143266 10.46704871 69.8125 12.9375 C72.73680329 18.01655308 72.54599534 23.30604861 72 29 C70.2532663 35.16618043 66.4255639 39.68547369 61 43 C45.45353507 50.3159835 22.25443575 51.73758824 5.91796875 45.9453125 C2.02157433 44.02489 -0.15340996 41.38532916 -2.375 37.75 C-3.31901335 33.59634127 -3.29040051 30.08174056 -2 26 C0.9718624 21.51108742 4.65095042 18.12977961 9 15 C8.44570312 14.67386719 7.89140625 14.34773437 7.3203125 14.01171875 C6.59585938 13.57472656 5.87140625 13.13773438 5.125 12.6875 C4.40570313 12.25824219 3.68640625 11.82898438 2.9453125 11.38671875 C1 10 1 10 -1 7 C-0.625 3.3125 -0.625 3.3125 0 0 Z M64 31 C63.67 32.32 63.34 33.64 63 35 C63.66 35 64.32 35 65 35 C65.33 33.68 65.66 32.36 66 31 C65.34 31 64.68 31 64 31 Z " fill="#AA7726" transform="translate(117,217)"/>
<path d="M0 0 C0.99 0 1.98 0 3 0 C3.3125 2.25 3.3125 2.25 3 5 C1.125 7.4375 1.125 7.4375 -2 9 C-4.50482401 8.69410114 -6.8521985 8.08308571 -9.296875 7.4609375 C-14.92634286 6.50099934 -20.30434399 7.86956266 -25 11 C-25.12375 11.804375 -25.2475 12.60875 -25.375 13.4375 C-26 16 -26 16 -28.375 17.5625 C-29.24125 18.036875 -30.1075 18.51125 -31 19 C-33.38246609 21.6289281 -34 22.38834178 -34 26 C-34.57668317 28.69290446 -35.30097568 31.3349698 -36 34 C-35.34 33.34 -34.68 32.68 -34 32 C-33.45970405 35.70488652 -32.94525607 39.40746518 -32.5 43.125 C-32.1120609 46.77633824 -32.1120609 46.77633824 -31.37890625 49.37890625 C-30.91577801 52.58260781 -31.50775104 54.72573345 -32.4375 57.8125 C-32.86869141 59.27623047 -32.86869141 59.27623047 -33.30859375 60.76953125 C-33.65083984 61.87361328 -33.65083984 61.87361328 -34 63 C-34.66 63 -35.32 63 -36 63 C-36 64.98 -36 66.96 -36 69 C-36.33 69 -36.66 69 -37 69 C-37.51778074 61.30520289 -36.7505733 55.78117047 -33 49 C-33.61875 48.34 -34.2375 47.68 -34.875 47 C-39.07246598 41.07416568 -39.73919581 34.08689313 -39 27 C-37.73367125 20.0617954 -35.43988358 14.62575135 -30 10 C-21.02976455 3.84622557 -10.50759674 3.67502278 0 4 C0 2.68 0 1.36 0 0 Z " fill="#F5E6AD" transform="translate(153,119)"/>
<path d="M0 0 C3.84931473 3.41207005 6.67723934 6.67444918 7 12 C5.35 12.33 3.7 12.66 2 13 C1.01 7.555 1.01 7.555 0 2 C-6.48822966 1.27414591 -6.48822966 1.27414591 -13 1 C-13.66 1 -14.32 1 -15 1 C-15 0.34 -15 -0.32 -15 -1 C-18.47823115 -2.15941038 -20.45895578 -1.70820884 -24 -1 C-24 -1.99 -24 -2.98 -24 -4 C-24.495 -4.99 -24.495 -4.99 -25 -6 C-28.43230448 -5.73606499 -28.43230448 -5.73606499 -32 -5 C-34.18490007 -2.32357511 -34.18490007 -2.32357511 -34 0 C-39.75 -0.875 -39.75 -0.875 -42 -2 C-42 -1.34 -42 -0.68 -42 0 C-42.56589844 -0.18820313 -43.13179687 -0.37640625 -43.71484375 -0.5703125 C-47.76534613 -1.33194543 -51.38801247 0.18027244 -55 2 C-56.95500857 4.52980707 -56.95500857 4.52980707 -58 7 C-58.66 7 -59.32 7 -60 7 C-60 7.66 -60 8.32 -60 9 C-61.65 9.33 -63.3 9.66 -65 10 C-64.49796107 5.91979267 -62.58150406 4.42870322 -59.4375 1.9375 C-55.09661558 -1.37657465 -51.29464101 -3.69110176 -46 -5 C-45.20335937 -5.20238281 -44.40671875 -5.40476563 -43.5859375 -5.61328125 C-28.95236273 -8.78604746 -12.81116791 -8.40112732 0 0 Z " fill="#EDDA9B" transform="translate(280,159)"/>
<path d="M0 0 C5.42857143 -0.36190476 5.42857143 -0.36190476 7.875 1.1875 C9.34781139 3.56036279 9.22223194 5.25913944 9 8 C10.258125 8 11.51625 8 12.8125 8 C20.375 8 20.375 8 24 10 C25.32 9.01 26.64 8.02 28 7 C28 7.66 28 8.32 28 9 C29.65 8.67 31.3 8.34 33 8 C33 8.99 33 9.98 33 11 C26.55317752 13.83939474 20.05752964 14.54246494 13.125 13.3125 C7.63327685 11.00597628 4.61811829 7.60834014 1 3 C0.33613281 3.55429688 -0.32773437 4.10859375 -1.01171875 4.6796875 C-2.33623047 5.76636719 -2.33623047 5.76636719 -3.6875 6.875 C-4.55761719 7.59429687 -5.42773438 8.31359375 -6.32421875 9.0546875 C-11.72186487 12.97881563 -17.88858151 14.63203483 -24.515625 13.61328125 C-26.69631559 13.12982626 -28.84938846 12.60237036 -31 12 C-31 11.01 -31 10.02 -31 9 C-27.66666667 9 -24.33333333 9 -21 9 C-19.33178677 8.67449498 -17.66500443 8.34153937 -16 8 C-13.66666667 8 -11.33333333 8 -9 8 C-8.34 7.01 -7.68 6.02 -7 5 C-5.68 5 -4.36 5 -3 5 C-2.67 4.01 -2.34 3.02 -2 2 C-1.34 2 -0.68 2 0 2 C0 1.34 0 0.68 0 0 Z " fill="#CAA963" transform="translate(264,208)"/>
<path d="M0 0 C1.11375 0.2475 1.11375 0.2475 2.25 0.5 C6.16747523 1.21226822 10.02942844 1.07785434 14 1 C14.33 1.99 14.66 2.98 15 4 C15.6496875 3.2575 15.6496875 3.2575 16.3125 2.5 C18 1 18 1 21 1 C21 1.66 21 2.32 21 3 C21.99 3.33 22.98 3.66 24 4 C25.25 5.875 25.25 5.875 26 8 C25.67 8.99 25.34 9.98 25 11 C24.96125079 12.66621616 24.9549714 14.33394172 25 16 C24.278125 15.814375 23.55625 15.62875 22.8125 15.4375 C20.09026538 14.83037792 20.09026538 14.83037792 17.8125 15.53125 C14.15172898 16.1413785 10.81484826 15.62135461 7.1875 15.0625 C6.49462891 14.96259766 5.80175781 14.86269531 5.08789062 14.75976562 C3.39082787 14.51398412 1.69524541 14.25801848 0 14 C0 14.99 0 15.98 0 17 C-1.65 16.67 -3.3 16.34 -5 16 C-5 15.34 -5 14.68 -5 14 C-5.73089844 13.33677734 -5.73089844 13.33677734 -6.4765625 12.66015625 C-8.45067555 10.50887921 -8.40346055 9.31675938 -8.375 6.4375 C-8.38273438 5.65246094 -8.39046875 4.86742187 -8.3984375 4.05859375 C-8.26695312 3.37925781 -8.13546875 2.69992188 -8 2 C-4.69346387 -0.20435742 -3.81653268 -0.27260948 0 0 Z M-6 3 C-5.71269945 5.33944736 -5.38063221 7.6739143 -5 10 C-0.9074419 11.94957399 2.42398473 12.26960267 6.9375 12.25 C8.12214844 12.25515625 9.30679688 12.2603125 10.52734375 12.265625 C14.00082283 11.99993706 16.76085468 11.24620553 20 10 C20 9.01 20 8.02 20 7 C6.72973435 1.46998674 6.72973435 1.46998674 -6 3 Z M22 4 C23 6 23 6 23 6 Z " fill="#AF8D4F" transform="translate(143,231)"/>
<path d="M0 0 C5.20724142 0.17651666 5.20724142 0.17651666 7.6875 1.125 C11.854208 6.53914836 12.12959196 12.94581966 12.12109375 19.5234375 C11.6875 22.125 11.6875 22.125 10.41015625 24.0390625 C8.6875 25.125 8.6875 25.125 6.921875 24.84765625 C5.81585938 24.48994141 5.81585938 24.48994141 4.6875 24.125 C2.44042759 23.9051777 0.18978762 23.72016013 -2.0625 23.5625 C-3.23296875 23.47871094 -4.4034375 23.39492187 -5.609375 23.30859375 C-6.50140625 23.24800781 -7.3934375 23.18742187 -8.3125 23.125 C-8.3125 22.465 -8.3125 21.805 -8.3125 21.125 C-9.6325 20.795 -10.9525 20.465 -12.3125 20.125 C-13.32096437 15.33479426 -13.89283208 12.44506978 -11.375 8.125 C-10.694375 7.135 -10.01375 6.145 -9.3125 5.125 C-9.9725 4.795 -10.6325 4.465 -11.3125 4.125 C-11.3125 3.135 -11.3125 2.145 -11.3125 1.125 C-8.38370629 1.75259865 -5.95154371 2.71122659 -3.3125 4.125 C-3.6425 3.135 -3.9725 2.145 -4.3125 1.125 C-3.3125 0.125 -3.3125 0.125 0 0 Z M-11.3125 11.125 C-11.1435727 15.97531402 -11.1435727 15.97531402 -8.6875 20 C-4.95226507 21.76932181 -1.46932379 22.69029656 2.625 21.6171875 C6.08323133 20.24830427 7.59720098 19.26044853 9.6875 16.125 C9.84775399 12.57921315 9.84775399 12.57921315 8.6875 9.125 C1.68588411 3.95714065 -5.40137702 5.21387702 -11.3125 11.125 Z M-12.3125 21.125 C-11.9825 22.115 -11.6525 23.105 -11.3125 24.125 C-12.3025 23.795 -13.2925 23.465 -14.3125 23.125 C-13.6525 22.465 -12.9925 21.805 -12.3125 21.125 Z " fill="#F0E1A4" transform="translate(148.3125,135.875)"/>
<path d="M0 0 C5.50143266 1.46704871 5.50143266 1.46704871 7.8125 3.9375 C10.73680329 9.01655308 10.54599534 14.30604861 10 20 C8.19886061 26.35823907 4.19171184 30.1499665 -1 34 C-1.66 33.67 -2.32 33.34 -3 33 C-1.515 29.535 -1.515 29.535 0 26 C-0.99 25.01 -1.98 24.02 -3 23 C-2.34 22.67 -1.68 22.34 -1 22 C-1.10828125 20.89591797 -1.10828125 20.89591797 -1.21875 19.76953125 C-0.94324839 16.28148408 0.12103376 15.19391086 2.5 12.6875 C3.1496875 11.99011719 3.799375 11.29273438 4.46875 10.57421875 C4.9740625 10.05472656 5.479375 9.53523437 6 9 C5.34 7.68 4.68 6.36 4 5 C3.071875 5.309375 3.071875 5.309375 2.125 5.625 C1.42375 5.74875 0.7225 5.8725 0 6 C-0.66 5.34 -1.32 4.68 -2 4 C-1.34 2.68 -0.68 1.36 0 0 Z M2 22 C1.67 23.32 1.34 24.64 1 26 C1.66 26 2.32 26 3 26 C3.33 24.68 3.66 23.36 4 22 C3.34 22 2.68 22 2 22 Z " fill="#BB8937" transform="translate(179,226)"/>
<path d="M0 0 C3.89699187 -0.13499972 7.78930653 -0.2341331 11.6875 -0.3125 C13.34168945 -0.3753418 13.34168945 -0.3753418 15.02929688 -0.43945312 C23.15916909 -0.56226086 23.15916909 -0.56226086 27.20703125 2.14453125 C30.34300166 7.13885449 30.12232786 12.37528024 30.09765625 18.1484375 C30.0962413 18.80582916 30.09482635 19.46322083 30.09336853 20.14053345 C30.08781762 22.21873731 30.07527465 24.29682927 30.0625 26.375 C30.05747864 27.79296718 30.05291685 29.21093607 30.04882812 30.62890625 C30.03786437 34.08597322 30.02063421 37.54297567 30 41 C29.67 41 29.34 41 29 41 C28.94465088 40.13310547 28.88930176 39.26621094 28.83227539 38.37304688 C28.62358436 35.12259179 28.41272192 31.87229207 28.20043945 28.62207031 C28.10941444 27.22173505 28.01922738 25.82134503 27.92993164 24.42089844 C27.24494846 13.68362937 27.24494846 13.68362937 26 3 C25.21625 3.20625 24.4325 3.4125 23.625 3.625 C22.75875 3.74875 21.8925 3.8725 21 4 C20.34 3.34 19.68 2.68 19 2 C16.41935871 1.85502015 13.95056116 1.81322455 11.375 1.875 C10.66859375 1.88402344 9.9621875 1.89304688 9.234375 1.90234375 C7.48943902 1.92592397 5.74467705 1.96179539 4 2 C3.93941406 2.67546875 3.87882812 3.3509375 3.81640625 4.046875 C3.73261719 4.93890625 3.64882812 5.8309375 3.5625 6.75 C3.48128906 7.63171875 3.40007812 8.5134375 3.31640625 9.421875 C3.03761535 11.69350452 2.61209423 13.79851823 2 16 C3.32 16 4.64 16 6 16 C7.75 18 7.75 18 9 20 C2.25 22 2.25 22 0 22 C0 14.74 0 7.48 0 0 Z " fill="#E5D39E" transform="translate(69,152)"/>
<path d="M0 0 C0.99 0.33 1.98 0.66 3 1 C2.67 2.32 2.34 3.64 2 5 C2.99 4.67 3.98 4.34 5 4 C4.67 5.65 4.34 7.3 4 9 C5.65 9 7.3 9 9 9 C9.33 9.99 9.66 10.98 10 12 C10.66 12.33 11.32 12.66 12 13 C11.88637738 14.4800841 11.75877092 15.95910074 11.625 17.4375 C11.55539063 18.26121094 11.48578125 19.08492187 11.4140625 19.93359375 C11.27742187 20.61550781 11.14078125 21.29742187 11 22 C10.34 22.33 9.68 22.66 9 23 C8.01 22.67 7.02 22.34 6 22 C5.01 22.33 4.02 22.66 3 23 C2.29925156 26.153368 2 28.72724974 2 32 C1.44664692 34.95121644 0.41538894 37.35794065 -1 40 C-3.16908918 36.04460208 -3.33989614 32.71384494 -2.7421875 28.34765625 C-0.89160352 22.49396694 4.16719059 18.47791583 9 15 C8.44570312 14.67386719 7.89140625 14.34773437 7.3203125 14.01171875 C6.59585938 13.57472656 5.87140625 13.13773438 5.125 12.6875 C4.40570313 12.25824219 3.68640625 11.82898438 2.9453125 11.38671875 C1 10 1 10 -1 7 C-0.625 3.3125 -0.625 3.3125 0 0 Z " fill="#B58A4A" transform="translate(117,217)"/>
<path d="M0 0 C2 1 2 1 5 3 C7.39894401 3.65572588 9.76944929 4.23656909 12.1953125 4.76953125 C13.64853724 5.10438515 15.10165896 5.43968638 16.5546875 5.77539062 C18.83082999 6.29413824 21.10771481 6.80866196 23.38671875 7.31469727 C44.32674338 11.99011507 44.32674338 11.99011507 49 19 C48.4225 18.7525 47.845 18.505 47.25 18.25 C46.5075 18.1675 45.765 18.085 45 18 C42.72855926 19.85432087 42.72855926 19.85432087 41 22 C41.2784375 20.824375 41.2784375 20.824375 41.5625 19.625 C42.25962266 17.02910225 42.25962266 17.02910225 41 15 C38.69 15 36.38 15 34 15 C34 14.01 34 13.02 34 12 C33.01 12 32.02 12 31 12 C30.67 12.99 30.34 13.98 30 15 C29.34 14.01 28.68 13.02 28 12 C25.94074861 11.27617533 25.94074861 11.27617533 24 11 C24 11.99 24 12.98 24 14 C21.69 14.33 19.38 14.66 17 15 C18.32 13.35 19.64 11.7 21 10 C19.56274129 9.83126522 18.12518162 9.66509263 16.6875 9.5 C15.88699219 9.4071875 15.08648437 9.314375 14.26171875 9.21875 C11.88103445 8.95186537 11.88103445 8.95186537 9 9 C8.67 8.34 8.34 7.68 8 7 C4.42464981 5.9238946 4.42464981 5.9238946 1 7 C0.67 4.69 0.34 2.38 0 0 Z " fill="#C6A664" transform="translate(135,209)"/>
<path d="M0 0 C0.85271484 0.10828125 0.85271484 0.10828125 1.72265625 0.21875 C6.51479024 0.79476611 11.16383319 1.09869728 16 1 C19.33333333 1 22.66666667 1 26 1 C26.32613618 5.67461851 25.70582788 8.16674383 23 12 C23.99 12.33 24.98 12.66 26 13 C25.2890625 14.953125 25.2890625 14.953125 24 17 C21.8359375 17.609375 21.8359375 17.609375 19.375 17.75 C18.55773437 17.80671875 17.74046875 17.8634375 16.8984375 17.921875 C16.27195313 17.94765625 15.64546875 17.9734375 15 18 C15.845625 17.13375 16.69125 16.2675 17.5625 15.375 C19.69935573 12.81320137 19.9950095 12.25950606 20.0625 8.75 C19.2852215 5.9423095 19.2852215 5.9423095 17.2421875 4.8515625 C13.22561906 3.32610619 9.22280247 3.44562885 5 4 C0.92429172 6.29258591 -0.64367505 8.56111833 -2 13 C-2.66 12.34 -3.32 11.68 -4 11 C-4 7 -4 7 -3 4 C-2.34 3.67 -1.68 3.34 -1 3 C-0.67 2.01 -0.34 1.02 0 0 Z " fill="#E2CA86" transform="translate(140,175)"/>
<path d="M0 0 C0.21914062 0.59039062 0.43828125 1.18078125 0.6640625 1.7890625 C2.42642904 4.70572759 4.42979551 5.693154 7.375 7.375 C13.34589886 11.04339538 16.95478033 14.7607781 18.68359375 21.75390625 C19.8692682 30.17073104 19.90193418 38.34620604 16 46 C15.01 46.495 15.01 46.495 14 47 C14 42.71 14 38.42 14 34 C14.99 34 15.98 34 17 34 C17 31.03 17 28.06 17 25 C16.34 25 15.68 25 15 25 C14.896875 23.906875 14.79375 22.81375 14.6875 21.6875 C14.02692273 18.14440371 13.7972908 17.06756277 11 15 C10.01 15.33 9.02 15.66 8 16 C8 14.35 8 12.7 8 11 C7.01 11.495 7.01 11.495 6 12 C5.62875 11.0409375 5.62875 11.0409375 5.25 10.0625 C4.18437567 7.81258459 4.18437567 7.81258459 1.875 7.25 C1.25625 7.1675 0.6375 7.085 0 7 C-0.38133299 5.0085944 -0.71325582 3.00720923 -1 1 C-0.67 0.67 -0.34 0.34 0 0 Z " fill="#F3E5AC" transform="translate(163,120)"/>
<path d="M0 0 C7.59 0 15.18 0 23 0 C23.125 11.75 23.125 11.75 22 14 C20.68 13.67 19.36 13.34 18 13 C18.33 11.68 18.66 10.36 19 9 C18.34 8.67 17.68 8.34 17 8 C17.165 7.38125 17.33 6.7625 17.5 6.125 C18.07634644 4.03936614 18.07634644 4.03936614 18 2 C13.05 2.33 8.1 2.66 3 3 C2.34 11.91 1.68 20.82 1 30 C0.67 30 0.34 30 0 30 C0 20.1 0 10.2 0 0 Z " fill="#E2D19A" transform="translate(191,154)"/>
<path d="M0 0 C2.97 0 5.94 0 9 0 C9 7.59 9 15.18 9 23 C-3.87 23 -16.74 23 -30 23 C-30 19.37 -30 15.74 -30 12 C-27.4345406 14.5654594 -27.45953913 16.47686668 -27 20 C-22.46102295 20.02465392 -17.92208457 20.04283789 -13.38305664 20.05493164 C-11.83780234 20.0599714 -10.29255284 20.0668032 -8.74731445 20.07543945 C-6.53074971 20.08752076 -4.31424782 20.09323173 -2.09765625 20.09765625 C-1.05545677 20.10539818 -1.05545677 20.10539818 0.00779724 20.11329651 C1.6722933 20.11349277 3.33665499 20.06189129 5 20 C6.4999411 18.5000589 6.31607651 17.05340395 6.53515625 14.96484375 C6.62216797 14.15595703 6.70917969 13.34707031 6.79882812 12.51367188 C6.88583984 11.66353516 6.97285156 10.81339844 7.0625 9.9375 C7.15337891 9.08349609 7.24425781 8.22949219 7.33789062 7.34960938 C7.56250722 5.23348465 7.78175227 3.11679106 8 1 C5.36 1 2.72 1 0 1 C0 0.67 0 0.34 0 0 Z " fill="#BBA574" transform="translate(98,196)"/>
<path d="M0 0 C0.33 0 0.66 0 1 0 C2.09930745 11.68014161 2.1004612 23.27952723 2 35 C7.28 35 12.56 35 18 35 C17.505 32.525 17.505 32.525 17 30 C18.32 29.67 19.64 29.34 21 29 C21.33 23.72 21.66 18.44 22 13 C22.33 13 22.66 13 23 13 C23 20.59 23 28.18 23 36 C15.41 36 7.82 36 0 36 C0 24.12 0 12.24 0 0 Z " fill="#C9AF76" transform="translate(191,184)"/>
<path d="M0 0 C0.99 0.66 1.98 1.32 3 2 C2.62875 3.093125 2.2575 4.18625 1.875 5.3125 C1.58625 6.529375 1.2975 7.74625 1 9 C1.99 10.485 1.99 10.485 3 12 C3 14.00401454 2.99609328 16.00856096 2.9375 18.01171875 C3.01981848 20.63047542 3.96793553 22.61335091 5 25 C5.66987356 29.82308961 3.97063386 34.62483125 2 39 C1.01 39.495 1.01 39.495 0 40 C0 41.98 0 43.96 0 46 C-0.33 46 -0.66 46 -1 46 C-1.51778074 38.30520289 -0.7505733 32.78117047 3 26 C2.360625 25.236875 1.72125 24.47375 1.0625 23.6875 C-3.03827059 18.34407165 -2.36642087 12.46775451 -2 6 C-1 2.25 -1 2.25 0 0 Z " fill="#F2DD97" transform="translate(117,142)"/>
<path d="M0 0 C5.62074131 4.9587945 6.61362416 11.32942948 7.375 18.5625 C6.86371864 23.24924583 5.50581402 27.5453002 4 32 C2.95550089 28.86650268 3.06576355 28.01031744 4 25 C3.34 25 2.68 25 2 25 C1.67 23.35 1.34 21.7 1 20 C1.99 19.34 2.98 18.68 4 18 C3.360625 17.21625 2.72125 16.4325 2.0625 15.625 C-0.73003385 11.48571223 -1.04410566 6.90454954 -1 2 C-0.67 1.34 -0.34 0.68 0 0 Z " fill="#E5CC86" transform="translate(177,167)"/>
<path d="M0 0 C0.33 0 0.66 0 1 0 C1 8.58 1 17.16 1 26 C5.95 25.01 5.95 25.01 11 24 C11 29.61 11 35.22 11 41 C10.01 41.495 10.01 41.495 9 42 C8.96132813 41.06027344 8.96132813 41.06027344 8.921875 40.1015625 C8.86515625 39.28429687 8.8084375 38.46703125 8.75 37.625 C8.70359375 36.81289062 8.6571875 36.00078125 8.609375 35.1640625 C8.20664659 32.83746966 8.20664659 32.83746966 6.078125 31.7109375 C4.05067346 30.89210411 4.05067346 30.89210411 2 31 C-0.14503684 27.51153178 -0.23354662 24.75594122 -0.1953125 20.703125 C-0.18886719 19.49785156 -0.18242187 18.29257813 -0.17578125 17.05078125 C-0.15064453 15.16939453 -0.15064453 15.16939453 -0.125 13.25 C-0.11597656 11.98027344 -0.10695313 10.71054688 -0.09765625 9.40234375 C-0.07409005 6.26803907 -0.04118832 3.13411459 0 0 Z " fill="#D3B978" transform="translate(288,176)"/>
<path d="M0 0 C1.5625 1.8125 1.5625 1.8125 3 4 C2.67 4.99 2.34 5.98 2 7 C1.96125079 8.66621616 1.9549714 10.33394172 2 12 C1.278125 11.814375 0.55625 11.62875 -0.1875 11.4375 C-2.90973462 10.83037792 -2.90973462 10.83037792 -5.1875 11.53125 C-8.84827102 12.1413785 -12.18515174 11.62135461 -15.8125 11.0625 C-16.50537109 10.96259766 -17.19824219 10.86269531 -17.91210938 10.75976562 C-19.60917213 10.51398412 -21.30475459 10.25801848 -23 10 C-23 10.99 -23 11.98 -23 13 C-24.65 12.67 -26.3 12.34 -28 12 C-28 10.68 -28 9.36 -28 8 C-19.75 8 -11.5 8 -3 8 C-2.01 5.36 -1.02 2.72 0 0 Z " fill="#BA8A38" transform="translate(166,235)"/>
<path d="M0 0 C-0.99 1.485 -0.99 1.485 -2 3 C-3.32 2.34 -4.64 1.68 -6 1 C-6 1.66 -6 2.32 -6 3 C-6.56589844 2.81179687 -7.13179687 2.62359375 -7.71484375 2.4296875 C-11.76534613 1.66805457 -15.38801247 3.18027244 -19 5 C-20.95500857 7.52980707 -20.95500857 7.52980707 -22 10 C-22.66 10 -23.32 10 -24 10 C-24 10.66 -24 11.32 -24 12 C-25.65 12.33 -27.3 12.66 -29 13 C-28.66802317 9.98510834 -28.02741538 9.02606154 -25.78515625 6.89453125 C-24.88667969 6.20746094 -23.98820313 5.52039063 -23.0625 4.8125 C-22.16660156 4.11769531 -21.27070313 3.42289063 -20.34765625 2.70703125 C-16.977648 0.25662592 -14.80700452 -0.23478983 -10.6875 -0.625 C-9.27017578 -0.76808594 -9.27017578 -0.76808594 -7.82421875 -0.9140625 C-5.03091643 -0.99905925 -2.70574224 -0.66041796 0 0 Z " fill="#EDD898" transform="translate(244,156)"/>
<path d="M0 0 C0.66 0 1.32 0 2 0 C1.7525 1.2375 1.505 2.475 1.25 3.75 C0.87379808 6.87579535 0.7950404 7.66694066 2.5 10.4375 C7.83853108 13.77408192 13.03398694 13.01309656 19 12 C20.32 12 21.64 12 23 12 C22.34 13.65 21.68 15.3 21 17 C20.31550781 16.84660156 19.63101563 16.69320312 18.92578125 16.53515625 C15.67561131 15.94066589 12.48283155 15.67050324 9.1875 15.4375 C8.02605469 15.35371094 6.86460937 15.26992187 5.66796875 15.18359375 C4.34732422 15.09271484 4.34732422 15.09271484 3 15 C3 14.34 3 13.68 3 13 C1.68 12.67 0.36 12.34 -1 12 C-2.42857143 3.42857143 -2.42857143 3.42857143 0 0 Z M-1 13 C-0.67 13.99 -0.34 14.98 0 16 C-0.99 15.67 -1.98 15.34 -3 15 C-2.34 14.34 -1.68 13.68 -1 13 Z " fill="#ECDA9F" transform="translate(137,144)"/>
<path d="M0 0 C0 0.66 0 1.32 0 2 C-0.99 2 -1.98 2 -3 2 C-2.484375 2.5775 -1.96875 3.155 -1.4375 3.75 C0 6 0 6 -0.3125 8.25 C-0.539375 8.8275 -0.76625 9.405 -1 10 C-3.70270638 11.00100236 -4.68423966 11.1412612 -7.375 9.9375 C-10.86663186 8.69048862 -12.66019886 9.60194371 -16 11 C-14.52567422 7.13827168 -12.54701627 5.81800775 -9 3.8125 C-8.113125 3.30332031 -7.22625 2.79414063 -6.3125 2.26953125 C-2.17846154 0 -2.17846154 0 0 0 Z " fill="#DCC684" transform="translate(247,182)"/>
<path d="M0 0 C0 0.66 0 1.32 0 2 C-0.639375 2.2475 -1.27875 2.495 -1.9375 2.75 C-4.18741541 3.81562433 -4.18741541 3.81562433 -4.75 6.125 C-4.8325 6.74375 -4.915 7.3625 -5 8 C-4.01 8.66 -3.02 9.32 -2 10 C-1.34 11.65 -0.68 13.3 0 15 C4.29 15.33 8.58 15.66 13 16 C13 15.34 13 14.68 13 14 C13.99 13.34 14.98 12.68 16 12 C16.99 12.33 17.98 12.66 19 13 C13.58361695 17.66410763 10.15144824 18.48484395 3 18 C-2.05418019 16.37238265 -5.36629687 14.71871811 -8 10 C-8.0625 6.9375 -8.0625 6.9375 -7 4 C-2.89473684 0 -2.89473684 0 0 0 Z " fill="#F2E5B1" transform="translate(78,127)"/>
<path d="M0 0 C1.06831055 0.04060547 1.06831055 0.04060547 2.15820312 0.08203125 C6.56665069 0.33487468 9.74022365 0.90548906 13.1875 3.75 C13.1875 4.74 13.1875 5.73 13.1875 6.75 C12.28 6.275625 11.3725 5.80125 10.4375 5.3125 C4.16355504 2.29618031 -2.00455807 1.63151238 -8.73828125 3.609375 C-11.45494988 4.6024883 -14.13478485 5.65696546 -16.8125 6.75 C-17.8025 7.08 -18.7925 7.41 -19.8125 7.75 C-18.9375 3 -18.9375 3 -17.8125 0.75 C-15.79427083 0.78255208 -13.77604167 0.81510417 -11.7578125 0.84765625 C-7.77433381 0.64768242 -4.23216951 -0.24872946 0 0 Z " fill="#E9D299" transform="translate(251.8125,167.25)"/>
<path d="M0 0 C0.33 0 0.66 0 1 0 C1.2475 1.11375 1.495 2.2275 1.75 3.375 C2.58456858 6.98281201 2.58456858 6.98281201 4.78125 8.1875 C7.15633295 9.05724868 9.23386173 9.4029878 11.75 9.625 C12.54921875 9.69976562 13.3484375 9.77453125 14.171875 9.8515625 C14.77515625 9.90054688 15.3784375 9.94953125 16 10 C15.34 12.31 14.68 14.62 14 17 C10.37471432 17.20140476 8.13498292 16.85776765 5 15 C5 13.68 5 12.36 5 11 C2.07678035 8.71760829 2.07678035 8.71760829 -1 7 C-0.67 4.69 -0.34 2.38 0 0 Z " fill="#D9BE7A" transform="translate(139,183)"/>
<path d="M0 0 C0.33 0 0.66 0 1 0 C1 1.65 1 3.3 1 5 C2.32 5.66 3.64 6.32 5 7 C0.375 12.875 0.375 12.875 -3 14 C-3.43957031 14.51175781 -3.87914062 15.02351562 -4.33203125 15.55078125 C-6.74522019 17.64748639 -8.55174159 17.29817383 -11.6875 17.1875 C-13.17830078 17.14689453 -13.17830078 17.14689453 -14.69921875 17.10546875 C-15.45847656 17.07066406 -16.21773437 17.03585938 -17 17 C-16.67 16.34 -16.34 15.68 -16 15 C-15.154375 15.12375 -14.30875 15.2475 -13.4375 15.375 C-9.26517244 14.91983699 -7.57390559 13.72623038 -4.546875 10.93359375 C-1.94071281 7.67589102 -0.93673053 4.0145594 0 0 Z " fill="#DABD77" transform="translate(267,188)"/>
<path d="M0 0 C5.50143266 1.46704871 5.50143266 1.46704871 7.8125 3.9375 C9.87359061 7.51728896 10.16023768 10.4433669 10.1875 14.5 C10.20167969 15.4590625 10.21585938 16.418125 10.23046875 17.40625 C10 20 10 20 8 23 C8 19.7 8 16.4 8 13 C7.34 13 6.68 13 6 13 C5.67 12.01 5.34 11.02 5 10 C5.33 9.34 5.66 8.68 6 8 C5.34 7.01 4.68 6.02 4 5 C3.071875 5.309375 3.071875 5.309375 2.125 5.625 C1.42375 5.74875 0.7225 5.8725 0 6 C-0.66 5.34 -1.32 4.68 -2 4 C-1.34 2.68 -0.68 1.36 0 0 Z " fill="#C09A4F" transform="translate(179,226)"/>
<path d="M0 0 C0.33 0.66 0.66 1.32 1 2 C0.071875 1.67 -0.85625 1.34 -1.8125 1 C-6.73853781 -0.39738624 -11.9327717 -0.72167264 -17 0 C-20.45895895 1.97826075 -20.92074217 2.76618939 -22.25 6.6875 C-22.4975 7.780625 -22.745 8.87375 -23 10 C-22.34 10 -21.68 10 -21 10 C-21.33 10.99 -21.66 11.98 -22 13 C-23.84703311 10.41415365 -24.98203806 8.71847745 -25.0625 5.5 C-23.33293154 1.43042716 -20.11847628 -1.11160672 -16.0625 -2.8125 C-9.72816886 -3.38834829 -5.60099901 -2.91251949 0 0 Z " fill="#F4E7BB" transform="translate(95,111)"/>
<path d="M0 0 C2.5654594 2.5654594 2.54046087 4.47686668 3 8 C7.53897705 8.02465392 12.07791543 8.04283789 16.61694336 8.05493164 C18.16219766 8.0599714 19.70744716 8.0668032 21.25268555 8.07543945 C23.46925029 8.08752076 25.68575218 8.09323173 27.90234375 8.09765625 C28.94454323 8.10539818 28.94454323 8.10539818 30.00779724 8.11329651 C31.6722933 8.11349277 33.33665499 8.06189129 35 8 C36.96822886 6.03177114 36.66248381 2.65191291 37 0 C37.33 0 37.66 0 38 0 C38.02689216 1.47906892 38.04634621 2.95827483 38.0625 4.4375 C38.07410156 5.26121094 38.08570313 6.08492187 38.09765625 6.93359375 C38 9 38 9 37 10 C34.26105915 10.08858646 31.5474673 10.11523479 28.80859375 10.09765625 C27.98875504 10.0962413 27.16891632 10.09482635 26.32423401 10.09336853 C23.69528618 10.08775289 21.06642227 10.07519779 18.4375 10.0625 C16.65950643 10.05748701 14.88151154 10.05292376 13.10351562 10.04882812 C8.73564455 10.03777839 4.36783652 10.02050331 0 10 C0 6.7 0 3.4 0 0 Z " fill="#CCAD69" transform="translate(68,208)"/>
<path d="M0 0 C2.495625 0.04125 4.99125 0.0825 7.5625 0.125 C7.5625 7.715 7.5625 15.305 7.5625 23.125 C6.5725 23.455 5.5825 23.785 4.5625 24.125 C4.71589844 23.31804687 4.86929688 22.51109375 5.02734375 21.6796875 C5.65142656 17.53431994 5.90854515 13.43263602 6.125 9.25 C6.269375 6.56875 6.41375 3.8875 6.5625 1.125 C0.6225 1.455 -5.3175 1.785 -11.4375 2.125 C-11.4375 2.785 -11.4375 3.445 -11.4375 4.125 C-13.4175 4.125 -15.3975 4.125 -17.4375 4.125 C-12.83228066 -0.48021934 -6.11448581 -0.14429088 0 0 Z " fill="#F3E8BD" transform="translate(178.4375,94.875)"/>
<path d="M0 0 C0.61875 0.78375 1.2375 1.5675 1.875 2.375 C3.89858661 4.96837647 3.89858661 4.96837647 6 7 C6.72515813 11.78604365 4.95363249 16.66257741 3 21 C2.34 21.33 1.68 21.66 1 22 C1 23.98 1 25.96 1 28 C0.67 28 0.34 28 0 28 C-0.51778074 20.30520289 0.2494267 14.78117047 4 8 C3.01 6.8553125 3.01 6.8553125 2 5.6875 C0 3 0 3 0 0 Z " fill="#E3D29A" transform="translate(116,160)"/>
<path d="M0 0 C0.99 0.33 1.98 0.66 3 1 C2.67 2.32 2.34 3.64 2 5 C2.99 4.67 3.98 4.34 5 4 C4.67 5.65 4.34 7.3 4 9 C5.65 9 7.3 9 9 9 C9.33 9.99 9.66 10.98 10 12 C6.75 12.3125 6.75 12.3125 3 12 C0.5 9.9375 0.5 9.9375 -1 7 C-0.75 3.1875 -0.75 3.1875 0 0 Z " fill="#CCA152" transform="translate(117,217)"/>
<path d="M0 0 C0.99 0.33 1.98 0.66 3 1 C2.85795259 2.58367747 2.71119847 4.16693318 2.5625 5.75 C2.48128906 6.63171875 2.40007812 7.5134375 2.31640625 8.421875 C2.03761535 10.69350452 1.61209423 12.79851823 1 15 C2.32 15 3.64 15 5 15 C6.75 17 6.75 17 8 19 C7.67 19.33 7.34 19.66 7 20 C4.69 20 2.38 20 0 20 C0 13.4 0 6.8 0 0 Z " fill="#EAD58F" transform="translate(70,153)"/>
<path d="M0 0 C0.33 0 0.66 0 1 0 C1.56880688 14.99964805 1.56880688 14.99964805 -2 22 C-2.66 22.33 -3.32 22.66 -4 23 C-4 18.71 -4 14.42 -4 10 C-3.01 10 -2.02 10 -1 10 C-0.67 6.7 -0.34 3.4 0 0 Z " fill="#EBD99D" transform="translate(181,144)"/>
<path d="M0 0 C0.99 0 1.98 0 3 0 C3.40214229 6.16618181 1.96818336 11.17745757 0 17 C-1.04449911 13.86650268 -0.93423645 13.01031744 0 10 C-0.66 10 -1.32 10 -2 10 C-2.33 8.35 -2.66 6.7 -3 5 C-2.01 4.34 -1.02 3.68 0 3 C0 2.01 0 1.02 0 0 Z " fill="#DDC383" transform="translate(181,182)"/>
<path d="M0 0 C0.33 0 0.66 0 1 0 C1 7.59 1 15.18 1 23 C-0.65 23 -2.3 23 -4 23 C-4.33 21.02 -4.66 19.04 -5 17 C-3.68 16.67 -2.36 16.34 -1 16 C-0.67 10.72 -0.34 5.44 0 0 Z " fill="#CCB077" transform="translate(213,197)"/>
<path d="M0 0 C0.79921875 0.01804688 1.5984375 0.03609375 2.421875 0.0546875 C3.02515625 0.07789063 3.6284375 0.10109375 4.25 0.125 C4.58 1.115 4.91 2.105 5.25 3.125 C5.8996875 2.3825 5.8996875 2.3825 6.5625 1.625 C8.25 0.125 8.25 0.125 11.25 0.125 C11.25 0.785 11.25 1.445 11.25 2.125 C11.91 2.455 12.57 2.785 13.25 3.125 C12.92 3.785 12.59 4.445 12.25 5.125 C5.32 4.135 -1.61 3.145 -8.75 2.125 C-5.00631258 0.25315629 -3.9099209 -0.11499767 0 0 Z " fill="#BD9450" transform="translate(152.75,231.875)"/>
<path d="M0 0 C2.83398763 0.09606738 5.02345099 0.27250432 7.6875 1.125 C8.0175 2.445 8.3475 3.765 8.6875 5.125 C5.56830911 6.1647303 4.68544502 6.13010045 1.625 5.375 C0.93277344 5.21515625 0.24054688 5.0553125 -0.47265625 4.890625 C-2.3125 4.125 -2.3125 4.125 -4.3125 1.125 C-3.3125 0.125 -3.3125 0.125 0 0 Z " fill="#F9E59F" transform="translate(148.3125,135.875)"/>
<path d="M0 0 C1.65 0 3.3 0 5 0 C2.68116787 4.50884026 -0.06451569 6.93906776 -4 10 C-4.66 9.67 -5.32 9.34 -6 9 C-5.25 6.0625 -5.25 6.0625 -4 3 C-1.875 2.125 -1.875 2.125 0 2 C0 1.34 0 0.68 0 0 Z " fill="#A77E36" transform="translate(182,250)"/>
<path d="M0 0 C0.66 0 1.32 0 2 0 C2 4.29 2 8.58 2 13 C0.68 12.67 -0.64 12.34 -2 12 C-1.67 10.68 -1.34 9.36 -1 8 C-1.66 7.67 -2.32 7.34 -3 7 C-2.38722388 4.03824877 -1.74627478 2.61941217 0 0 Z " fill="#EFD88E" transform="translate(211,155)"/>
<path d="M0 0 C0.33 0.99 0.66 1.98 1 3 C0.175 3.721875 -0.65 4.44375 -1.5 5.1875 C-4.24407806 7.72917366 -4.24407806 7.72917366 -4.3125 10.8125 C-4.209375 11.534375 -4.10625 12.25625 -4 13 C-4.66 13 -5.32 13 -6 13 C-6.66 17.29 -7.32 21.58 -8 26 C-8.33 26 -8.66 26 -9 26 C-9.41822485 17.35668637 -8.60399258 9.66597002 -2.8125 2.875 C-1.89067036 1.90158378 -0.95877156 0.93705182 0 0 Z " fill="#F2E4B1" transform="translate(123,129)"/>
<path d="M0 0 C0.66 0.33 1.32 0.66 2 1 C2.625 3.5625 2.625 3.5625 3 6 C2.21625 6.433125 1.4325 6.86625 0.625 7.3125 C-2.21698375 8.89220247 -2.21698375 8.89220247 -4 12 C-4.66 12 -5.32 12 -6 12 C-5.4739075 8.21213403 -4.61896089 5.82847776 -2 3 C-1.34 3 -0.68 3 0 3 C0 2.01 0 1.02 0 0 Z " fill="#F8E59E" transform="translate(124,129)"/>
<path d="M0 0 C0 3.63 0 7.26 0 11 C-0.33 11 -0.66 11 -1 11 C-1 9.02 -1 7.04 -1 5 C-1.99 5.33 -2.98 5.66 -4 6 C-5.65 4.35 -7.3 2.7 -9 1 C-6.04335481 -0.4783226 -3.25770263 -0.06032783 0 0 Z " fill="#DABB71" transform="translate(106,197)"/>
<path d="M0 0 C0.33 0.66 0.66 1.32 1 2 C-3.31478885 4.40707041 -7.14822413 4.50973634 -12 4.75 C-12.80695313 4.80542969 -13.61390625 4.86085938 -14.4453125 4.91796875 C-15.61707031 4.98177734 -15.61707031 4.98177734 -16.8125 5.046875 C-17.87404297 5.10633301 -17.87404297 5.10633301 -18.95703125 5.16699219 C-21.3587433 4.97067634 -22.92505995 4.19017628 -25 3 C-23.1128125 3.061875 -23.1128125 3.061875 -21.1875 3.125 C-15.64264408 3.13375965 -10.41144811 2.12328544 -5 1 C-3.33342193 0.666224 -1.66678187 0.33275681 0 0 Z " fill="#AD601E" transform="translate(164,261)"/>
<path d="M0 0 C0.99 0 1.98 0 3 0 C6.22265625 5.2734375 6.22265625 5.2734375 7 7 C6.67 7.66 6.34 8.32 6 9 C4.68 7.02 3.36 5.04 2 3 C1.45730469 3.42152344 0.91460937 3.84304687 0.35546875 4.27734375 C-0.71767578 5.09912109 -0.71767578 5.09912109 -1.8125 5.9375 C-2.87404297 6.75541016 -2.87404297 6.75541016 -3.95703125 7.58984375 C-6 9 -6 9 -9 10 C-8.34 8.35 -7.68 6.7 -7 5 C-5.68 5 -4.36 5 -3 5 C-2.67 4.01 -2.34 3.02 -2 2 C-1.34 2 -0.68 2 0 2 C0 1.34 0 0.68 0 0 Z " fill="#C7AC74" transform="translate(264,208)"/>
<path d="M0 0 C2.31 0.33 4.62 0.66 7 1 C6.88637738 2.4800841 6.75877092 3.95910074 6.625 5.4375 C6.55539063 6.26121094 6.48578125 7.08492187 6.4140625 7.93359375 C6.27742187 8.61550781 6.14078125 9.29742187 6 10 C5.01 10.495 5.01 10.495 4 11 C3.01 10.67 2.02 10.34 1 10 C0.01 10.495 0.01 10.495 -1 11 C0.37154504 8.04590299 1.98863724 5.55991624 4 3 C2.68 2.01 1.36 1.02 0 0 Z " fill="#C09240" transform="translate(122,229)"/>
<path d="M0 0 C0.33 0.66 0.66 1.32 1 2 C3.02463255 2.65213292 3.02463255 2.65213292 5 3 C4.2890625 4.953125 4.2890625 4.953125 3 7 C0.8359375 7.609375 0.8359375 7.609375 -1.625 7.75 C-2.44226563 7.80671875 -3.25953125 7.8634375 -4.1015625 7.921875 C-4.72804687 7.94765625 -5.35453125 7.9734375 -6 8 C-4.73046875 6.50260417 -3.4609375 5.00520833 -2.19140625 3.5078125 C-0.9121848 1.99405921 -0.9121848 1.99405921 0 0 Z " fill="#DDC17E" transform="translate(161,185)"/>
<path d="M0 0 C-1.22976563 0.68835938 -1.22976563 0.68835938 -2.484375 1.390625 C-3.56203125 2.00421875 -4.6396875 2.6178125 -5.75 3.25 C-6.81734375 3.85328125 -7.8846875 4.4565625 -8.984375 5.078125 C-11.74387579 6.83677058 -13.80562099 8.59257448 -16 11 C-16 9.35 -16 7.7 -16 6 C-9.25 2 -9.25 2 -7 2 C-7 1.34 -7 0.68 -7 0 C-3.98968256 -0.93423645 -3.13349732 -1.04449911 0 0 Z " fill="#D7C188" transform="translate(265,188)"/>
<path d="M0 0 C0 0.99 0 1.98 0 3 C-1.65 3.33 -3.3 3.66 -5 4 C-6.91626837 8.98229776 -7.5547115 13.72684667 -8 19 C-8.33 19 -8.66 19 -9 19 C-9.86090383 8.42044849 -9.86090383 8.42044849 -6.625 3.875 C-3.08695652 0 -3.08695652 0 0 0 Z " fill="#F2E6B9" transform="translate(161,99)"/>
<path d="M0 0 C0 2.64779693 -0.17195931 4.51587793 -1 7 C-3.64458379 8.32229189 -5.67761301 8.09677194 -8.625 8.0625 C-9.62789062 8.05347656 -10.63078125 8.04445312 -11.6640625 8.03515625 C-12.43492187 8.02355469 -13.20578125 8.01195312 -14 8 C-13.67 7.34 -13.34 6.68 -13 6 C-12.154375 6.12375 -11.30875 6.2475 -10.4375 6.375 C-5.62045343 5.84950401 -3.34573155 3.32593432 0 0 Z " fill="#D2B87E" transform="translate(264,197)"/>
<path d="M0 0 C2.31 0.33 4.62 0.66 7 1 C6.67 2.32 6.34 3.64 6 5 C3.39417629 5.93065133 2.35801776 6.14917407 -0.25 5.0625 C-0.8275 4.711875 -1.405 4.36125 -2 4 C-1.34 2.68 -0.68 1.36 0 0 Z " fill="#E3C375" transform="translate(240,187)"/>
<path d="M0 0 C0.99 0.33 1.98 0.66 3 1 C3.05410687 2.77049689 3.09284119 4.54146849 3.125 6.3125 C3.14820313 7.29863281 3.17140625 8.28476563 3.1953125 9.30078125 C3 12 3 12 1 15 C1 11.7 1 8.4 1 5 C0.34 5 -0.32 5 -1 5 C-1.33 4.01 -1.66 3.02 -2 2 C-1.34 1.34 -0.68 0.68 0 0 Z " fill="#B28C4C" transform="translate(186,234)"/>
<path d="M0 0 C0 5.61 0 11.22 0 17 C-0.33 17 -0.66 17 -1 17 C-1 12.38 -1 7.76 -1 3 C-3.64 3 -6.28 3 -9 3 C-3 0 -3 0 0 0 Z " fill="#C9B583" transform="translate(299,200)"/>
<path d="M0 0 C0.66 0.33 1.32 0.66 2 1 C2 1.99 2 2.98 2 4 C1.01 4 0.02 4 -1 4 C-1.33 7.96 -1.66 11.92 -2 16 C-2.66 16 -3.32 16 -4 16 C-4.36266924 10.19729221 -3.30512167 6.34788227 -1 1 C-0.67 0.67 -0.34 0.34 0 0 Z " fill="#D0BA83" transform="translate(229,193)"/>
<path d="M0 0 C2 3.75 2 3.75 2 6 C0.5 7.625 0.5 7.625 -1 9 C-0.01 8.67 0.98 8.34 2 8 C2.33 9.32 2.66 10.64 3 12 C2.01 12.66 1.02 13.32 0 14 C-1.85776765 10.86501708 -2.20140476 8.62528568 -2 5 C-1.34 5 -0.68 5 0 5 C-0.33 4.01 -0.66 3.02 -1 2 C-0.67 1.34 -0.34 0.68 0 0 Z " fill="#D7B361" transform="translate(229,201)"/>
<path d="M0 0 C5.52 -0.368 5.52 -0.368 7.875 1.4375 C9 3 9 3 9 4 C6.03 4 3.06 4 0 4 C-0.33 3.34 -0.66 2.68 -1 2 C-0.67 1.34 -0.34 0.68 0 0 Z " fill="#AE7721" transform="translate(163,257)"/>
<path d="M0 0 C0.33 0 0.66 0 1 0 C1.07427838 3.34252724 1.06546953 5.8035914 0 9 C-0.66 9 -1.32 9 -2 9 C-2 10.98 -2 12.96 -2 15 C-2.33 15 -2.66 15 -3 15 C-3 11.37 -3 7.74 -3 4 C-2.01 3.67 -1.02 3.34 0 3 C0 2.01 0 1.02 0 0 Z " fill="#E4CA88" transform="translate(119,173)"/>
<path d="M0 0 C5.73842251 -0.20413361 10.60539047 -0.27141454 16 2 C16 2.33 16 2.66 16 3 C10.21101581 3.20674944 5.57067277 2.59162079 0 1 C0 0.67 0 0.34 0 0 Z " fill="#9D6E28" transform="translate(123,262)"/>
<path d="M0 0 C-0.66 1.65 -1.32 3.3 -2 5 C-3.98 4.34 -5.96 3.68 -8 3 C-6.14481495 -0.71037009 -3.79223618 -1.26407873 0 0 Z " fill="#F0DA91" transform="translate(160,156)"/>
<path d="M0 0 C0 1.98 0 3.96 0 6 C-1.32 6 -2.64 6 -4 6 C-4.33 4.35 -4.66 2.7 -5 1 C-1.125 0 -1.125 0 0 0 Z " fill="#D1AB5C" transform="translate(213,213)"/>
<path d="M0 0 C0.185625 0.9590625 0.185625 0.9590625 0.375 1.9375 C0.684375 2.9584375 0.684375 2.9584375 1 4 C1.66 4.33 2.32 4.66 3 5 C1.68 6.32 0.36 7.64 -1 9 C-1 7.68 -1 6.36 -1 5 C-1.99 5.495 -1.99 5.495 -3 6 C-2.42655063 3.13275314 -2.1385485 2.1385485 0 0 Z " fill="#E2CA87" transform="translate(221,177)"/>
<path d="M0 0 C0.66 0 1.32 0 2 0 C2 1.98 2 3.96 2 6 C0.35 6 -1.3 6 -3 6 C-2.01 4.02 -1.02 2.04 0 0 Z " fill="#B58633" transform="translate(185,244)"/>
<path d="M0 0 C0.33 0.66 0.66 1.32 1 2 C-0.670625 2.4021875 -0.670625 2.4021875 -2.375 2.8125 C-6.21840951 3.65809019 -6.21840951 3.65809019 -8 7 C-8.1875 4.625 -8.1875 4.625 -8 2 C-4.77208445 -0.1519437 -3.71599191 -0.20086443 0 0 Z " fill="#B69552" transform="translate(143,231)"/>
<path d="M0 0 C1.37562854 1.28965176 2.70766393 2.62689293 4 4 C4 4.66 4 5.32 4 6 C2.02 6.99 2.02 6.99 0 8 C-1.125 2.25 -1.125 2.25 0 0 Z " fill="#E7D093" transform="translate(177,167)"/>
<path d="M0 0 C-1.24176695 0.70226141 -2.49385599 1.38629109 -3.75 2.0625 C-4.79414063 2.63677734 -4.79414063 2.63677734 -5.859375 3.22265625 C-8.36140628 4.1312406 -9.5332355 3.88336837 -12 3 C-10.02 2.67 -8.04 2.34 -6 2 C-6 1.34 -6 0.68 -6 0 C-3.50907189 -1.24546405 -2.58919267 -0.7767578 0 0 Z " fill="#CCB67D" transform="translate(176,205)"/>
<path d="M0 0 C0.66 0 1.32 0 2 0 C1.6875 2.375 1.6875 2.375 1 5 C0.01 5.66 -0.98 6.32 -2 7 C-2.33 5.68 -2.66 4.36 -3 3 C-2.01 2.67 -1.02 2.34 0 2 C0 1.34 0 0.68 0 0 Z " fill="#D9BA7A" transform="translate(178,197)"/>
<path d="M0 0 C2.31 0.33 4.62 0.66 7 1 C6.67 2.65 6.34 4.3 6 6 C4.68 5.67 3.36 5.34 2 5 C2.66 4.34 3.32 3.68 4 3 C2.68 2.01 1.36 1.02 0 0 Z " fill="#BA9255" transform="translate(122,229)"/>
<path d="M0 0 C-2.31 1.65 -4.62 3.3 -7 5 C-7.66 4.34 -8.32 3.68 -9 3 C-8.34 3 -7.68 3 -7 3 C-6.67 2.01 -6.34 1.02 -6 0 C-3 -1 -3 -1 0 0 Z " fill="#E1D090" transform="translate(232,176)"/>
<path d="M0 0 C2.04119788 1.61594832 4.04072937 3.2856382 6 5 C6 5.66 6 6.32 6 7 C3.5625 6.3125 3.5625 6.3125 1 5 C0.1875 2.375 0.1875 2.375 0 0 Z " fill="#9D7634" transform="translate(117,255)"/>
<path d="M0 0 C-0.66 2.31 -1.32 4.62 -2 7 C-2.99 5.68 -3.98 4.36 -5 3 C-2.25 0 -2.25 0 0 0 Z " fill="#B78333" transform="translate(120,246)"/>
<path d="M0 0 C0.66 0.33 1.32 0.66 2 1 C2 1.99 2 2.98 2 4 C-0.31 4.33 -2.62 4.66 -5 5 C-3.35 3.35 -1.7 1.7 0 0 Z " fill="#CBA451" transform="translate(157,219)"/>
<path d="M0 0 C1.32 0 2.64 0 4 0 C3.67 0.99 3.34 1.98 3 3 C-0.0625 4.1875 -0.0625 4.1875 -3 5 C-1.125 1.125 -1.125 1.125 0 0 Z " fill="#DDBE7C" transform="translate(234,188)"/>
<path d="M0 0 C0.66 0 1.32 0 2 0 C2 2.64 2 5.28 2 8 C1.01 8 0.02 8 -1 8 C-0.814375 7.38125 -0.62875 6.7625 -0.4375 6.125 C0.23686176 3.95839822 0.23686176 3.95839822 -1 2 C-0.67 1.34 -0.34 0.68 0 0 Z " fill="#E4C77F" transform="translate(137,179)"/>
<path d="M0 0 C0.309375 0.639375 0.61875 1.27875 0.9375 1.9375 C1.8345163 3.93610821 1.8345163 3.93610821 3 5 C3.04080783 6.99958364 3.04254356 9.00045254 3 11 C0.60236815 8.60236815 0.65719414 7.66726502 0.375 4.375 C0.30023438 3.55773437 0.22546875 2.74046875 0.1484375 1.8984375 C0.09945312 1.27195313 0.05046875 0.64546875 0 0 Z " fill="#A47E48" transform="translate(114,246)"/>
<path d="M0 0 C2.96865509 2.54456151 4.3619751 5.48994665 6 9 C2.83884224 7.63016497 2.0072908 7.0109362 0 4 C0 2.68 0 1.36 0 0 Z " fill="#B89E63" transform="translate(116,220)"/>
<path d="M0 0 C1.98362069 2.91708924 1.9876191 4.12380904 1.625 7.75 C1.41875 8.8225 1.2125 9.895 1 11 C0.67 11 0.34 11 0 11 C-0.144375 9.906875 -0.28875 8.81375 -0.4375 7.6875 C-0.88288104 4.06877013 -0.88288104 4.06877013 -2 1 C-1.34 0.67 -0.68 0.34 0 0 Z " fill="#E6D28B" transform="translate(287,171)"/>
<path d="M0 0 C0.66 0.66 1.32 1.32 2 2 C0.02 2.99 0.02 2.99 -2 4 C-2 4.66 -2 5.32 -2 6 C-2.99 5.67 -3.98 5.34 -5 5 C-3.35 3.35 -1.7 1.7 0 0 Z " fill="#EBD589" transform="translate(222,162)"/>
</svg>
